<svg width="50" height="57" viewBox="0 0 50 57" fill="none" xmlns="http://www.w3.org/2000/svg">
<g id="Frame 14728">
<g id="Group 14821" filter="url(#filter0_d_1252_1344)">
<path id="Ellipse 548 (Stroke)" fill-rule="evenodd" clip-rule="evenodd" d="M24 54.32C36.327 54.32 46.32 44.327 46.32 32C46.32 19.673 36.327 9.68 24 9.68C11.673 9.68 1.68 19.673 1.68 32C1.68 44.327 11.673 54.32 24 54.32ZM24 56C37.2548 56 48 45.2548 48 32C48 18.7452 37.2548 8 24 8C10.7452 8 0 18.7452 0 32C0 45.2548 10.7452 56 24 56Z" fill="url(#paint0_linear_1252_1344)"/>
<g id="Group 14706">
<path id="Subtract" d="M39.2427 42.5238L29.2797 20.96L22.1094 36.4792C24.2338 35.7782 26.4275 34.1755 27.9601 31.2438L27.9652 31.2438L29.2797 28.3988L35.8058 42.5238H39.2427Z" fill="white"/>
<path id="Subtract_2" d="M11.2821 31.7602C11.2821 27.3861 14.828 23.8402 19.2021 23.8402C20.4382 23.8402 21.6081 24.1234 22.6506 24.6284L23.9649 21.7976C22.5229 21.107 20.9077 20.7202 19.2021 20.7202C13.1049 20.7202 8.16211 25.663 8.16211 31.7602C8.16211 37.8574 13.1049 42.8002 19.2021 42.8002C21.8936 42.8002 24.3602 41.8371 26.2759 40.2366L28.2641 35.9276C26.3429 37.8607 23.0274 39.6802 19.3221 39.6802L19.3224 39.6793C19.2824 39.6799 19.2423 39.6802 19.2021 39.6802C14.828 39.6802 11.2821 36.1343 11.2821 31.7602Z" fill="url(#paint1_linear_1252_1344)"/>
</g>
</g>
</g>
<defs>
<filter id="filter0_d_1252_1344" x="0" y="7" width="50" height="50" filterUnits="userSpaceOnUse" color-interpolation-filters="sRGB">
<feFlood flood-opacity="0" result="BackgroundImageFix"/>
<feColorMatrix in="SourceAlpha" type="matrix" values="0 0 0 0 0 0 0 0 0 0 0 0 0 0 0 0 0 0 127 0" result="hardAlpha"/>
<feOffset dx="1"/>
<feGaussianBlur stdDeviation="0.5"/>
<feColorMatrix type="matrix" values="0 0 0 0 0 0 0 0 0 0 0 0 0 0 0 0 0 0 0.4 0"/>
<feBlend mode="normal" in2="BackgroundImageFix" result="effect1_dropShadow_1252_1344"/>
<feBlend mode="normal" in="SourceGraphic" in2="effect1_dropShadow_1252_1344" result="shape"/>
</filter>
<linearGradient id="paint0_linear_1252_1344" x1="39.375" y1="0.125001" x2="10.5" y2="59.75" gradientUnits="userSpaceOnUse">
<stop stop-color="#909090"/>
<stop offset="0.505208" stop-color="white"/>
<stop offset="1" stop-color="#909090"/>
</linearGradient>
<linearGradient id="paint1_linear_1252_1344" x1="19.8002" y1="33.0802" x2="28.3202" y2="38.4802" gradientUnits="userSpaceOnUse">
<stop stop-color="white"/>
<stop offset="1" stop-color="#909090"/>
</linearGradient>
</defs>
</svg>
