<svg width="48" height="56" viewBox="0 0 48 56" fill="none" xmlns="http://www.w3.org/2000/svg">
<g id="Frame 14728">
<g id="Group 14983">
<path id="Ellipse 548 (Stroke)" fill-rule="evenodd" clip-rule="evenodd" d="M24 54.32C36.327 54.32 46.32 44.327 46.32 32C46.32 19.673 36.327 9.68 24 9.68C11.673 9.68 1.68 19.673 1.68 32C1.68 44.327 11.673 54.32 24 54.32ZM24 56C37.2548 56 48 45.2548 48 32C48 18.7452 37.2548 8 24 8C10.7452 8 0 18.7452 0 32C0 45.2548 10.7452 56 24 56Z" fill="white"/>
<g id="Group 14966">
<g id="Group 14707">
<path id="Subtract" d="M39.2446 42.5238L29.2816 20.96L22.1113 36.4792C24.2358 35.7782 26.4294 34.1755 27.962 31.2438L27.9672 31.2438L29.2816 28.3988L35.8077 42.5238H39.2446Z" fill="url(#paint0_linear_1252_1344)"/>
<path id="Subtract_2" d="M11.2802 31.6547C11.2802 27.2807 14.8261 23.7347 19.2002 23.7347C20.4362 23.7347 21.6062 24.0179 22.6486 24.5229L23.9629 21.6921C22.5209 21.0015 20.9057 20.6147 19.2002 20.6147C13.1029 20.6147 8.16016 25.5575 8.16016 31.6547C8.16016 37.752 13.1029 42.6947 19.2002 42.6947C21.8917 42.6947 24.3582 41.7316 26.2739 40.1311L28.2622 35.8222C26.3409 37.7553 23.0254 39.5747 19.3202 39.5747L19.3204 39.5739C19.2804 39.5744 19.2403 39.5747 19.2002 39.5747C14.8261 39.5747 11.2802 36.0288 11.2802 31.6547Z" fill="white"/>
</g>
</g>
</g>
</g>
<defs>
<linearGradient id="paint0_linear_1252_1344" x1="32.9995" y1="36.44" x2="22.0795" y2="36.44" gradientUnits="userSpaceOnUse">
<stop stop-color="white"/>
<stop offset="1" stop-color="white" stop-opacity="0.5"/>
</linearGradient>
</defs>
</svg>
