<svg width="32" height="24" viewBox="0 0 32 24" fill="none" xmlns="http://www.w3.org/2000/svg">
<g id="Frame 14732">
<g id="Group 14823">
<path id="Vector" d="M32 1.65734C32 2.47066 30.9756 3.13043 29.7148 3.13043H2.28516C1.02288 3.13043 0 2.47066 0 1.65734V1.47309C0 0.659773 1.02444 0 2.28516 0H29.7133C30.974 0 31.9984 0.659773 31.9984 1.47309V1.65734H32Z" fill="white"/>
<path id="Vector_2" d="M32 12.0922C32 12.9055 30.9756 13.5652 29.7148 13.5652H2.28516C1.02288 13.5652 0 12.9055 0 12.0922V11.9079C0 11.0946 1.02444 10.4348 2.28516 10.4348H29.7133C30.974 10.4348 31.9984 11.0946 31.9984 11.9079L32 12.0922Z" fill="white"/>
<path id="Vector_3" d="M32 22.527C32 23.3403 30.9756 24.0001 29.7148 24.0001H2.28516C1.02288 24.0001 0 23.3403 0 22.527V22.3427C0 21.5294 1.02444 20.8696 2.28516 20.8696H29.7133C30.974 20.8696 31.9984 21.5294 31.9984 22.3427L32 22.527Z" fill="white"/>
</g>
</g>
</svg>
