<svg width="34" height="32" viewBox="0 0 34 32" fill="none" xmlns="http://www.w3.org/2000/svg">
<g id="Frame 1471">
<circle id="Ellipse 8" cx="18" cy="16" r="16" fill="#2D2D2D"/>
<path id="Vector" d="M17.9476 4.5C20.5344 4.5 22.8473 6.91138 22.8473 9.73307C22.8473 12.5548 20.5344 14.9661 17.9476 14.9661C15.3608 14.9661 13.0478 12.5548 13.0478 9.73307C13.0478 6.91138 15.3608 4.5 17.9476 4.5ZM18.6412 31.4762C15.109 31.657 11.4971 30.8218 9.5011 28.602C9.57759 22.1506 13.6238 17.8781 17.9476 17.8781C22.2828 17.8781 26.4299 22.1681 26.4991 28.6241C25.9429 29.3328 24.923 29.9897 23.5693 30.4999C22.1514 31.0343 20.4272 31.3848 18.6412 31.4762Z" fill="#2D2D2D" stroke="#D9D9D9"/>
<circle id="Ellipse 9" cx="18" cy="16" r="15.5" stroke="#D9D9D9"/>
</g>
</svg>
