<svg width="17" height="17" viewBox="0 0 17 17" fill="none" xmlns="http://www.w3.org/2000/svg">
<g id="button background">
<path id="magnifying glass" d="M16.0287 14.7592L12.0315 10.7561C14.0415 8.14002 13.8408 4.36029 11.4286 1.96785C10.1113 0.648892 8.41359 -0.00012207 6.69412 -0.00012207C4.97465 -0.00012207 3.27685 0.647998 1.95961 1.96785C-0.653203 4.5839 -0.653203 8.83255 1.95961 11.4486C3.27694 12.7676 4.97465 13.4166 6.69412 13.4166C8.12312 13.4166 9.55305 12.9693 10.737 12.0522L14.7561 16.0336C14.935 16.2127 15.1583 16.3018 15.4034 16.3018C15.6268 16.3018 15.8728 16.2127 16.0508 16.0336C16.3866 15.6982 16.3866 15.1164 16.0289 14.7592H16.0287ZM6.71583 11.6058C5.3985 11.6058 4.1919 11.0913 3.25411 10.175C1.35575 8.27432 1.35575 5.16655 3.25411 3.24303C4.17015 2.32586 5.3985 1.81226 6.71583 1.81226C8.03316 1.81226 9.23975 2.32675 10.1775 3.24303C11.1154 4.1602 11.6065 5.39007 11.6065 6.70903C11.6065 8.02799 11.0927 9.23608 10.1775 10.175C9.26151 11.114 8.01136 11.6058 6.71583 11.6058Z" fill="white"/>
</g>
</svg>
